<svg version="1.2" xmlns="http://www.w3.org/2000/svg" viewBox="0 0 213 41" width="500" height="96">
	<title>Net Affinity Brandmark_Prurple_AW-svg</title>
	<style>
		.s0 { fill: #8c00ef } 
	</style>
	<g id="Layer_1">
		<g id="Layer">
			<g id="Layer">
				<path id="Layer" class="s0" d="m101.1 27.6l2.4 1.5-0.8 0.9c-0.1 0.2-2.1 2.7-5.3 2.7-3.8 0-6.6-3-6.6-7.1v-9.8h-3.7v-2.9h3.8l-0.1-5.2h3.3v5.2h5.6v2.9h-5.6v9.8c0 2.4 1.4 4.2 3.3 4.2 1.8 0 3.1-1.5 3.1-1.5z"/>
				<path id="Layer" class="s0" d="m154.8 7.8c0 1.1-0.9 2.1-2 2.1-1.1 0-2.1-1-2.1-2.1 0-1.1 1-2 2.1-2 1.1 0 2 0.9 2 2z"/>
			</g>
			<path id="Layer" class="s0" d="m151.2 12.9h3.2v19.3h-3.2z"/>
			<g id="Layer">
				<path id="Layer" class="s0" d="m212.7 12.9v17.9c0 5.3-3.7 8.9-9.3 8.9-5 0-7.4-3.6-7.5-3.7l-0.5-0.9 2.3-1.6 0.6 0.9c0 0 1.7 2.4 5.1 2.4 3.6 0 6.1-2.4 6.1-6v-0.5c-1.3 1-3.3 2.1-5.8 2.1-4.8 0-8.1-3.2-8.1-7.8v-11.7h3.2v11.7c0 2.8 2.1 4.9 4.9 4.9 3 0 5.2-2.6 5.8-3.3v-13.3z"/>
				<path id="Layer" class="s0" d="m143.1 13.2h5.8v2.9h-5.8v16.1h-3.3v-16.1h-6.3v16.1h-3.2v-16.1h-3.8v-2.9h3.8v-0.6c0-4.1 2.7-7.1 6.5-7.1q0.5 0 1.1 0.1l0.9 0.2v2.9l-1.3-0.2q-0.3-0.1-0.7-0.1c-1.9 0-3.3 1.8-3.3 4.2v0.6h6.3v-0.6c0-4.1 2.8-7.1 6.6-7.1q0.5 0 1.1 0.1l0.9 0.2v2.9l-1.3-0.2q-0.3-0.1-0.7-0.1c-1.9 0-3.3 1.8-3.3 4.2z"/>
				<path id="Layer" class="s0" d="m64.5 14.4c1.5 1.5 2.3 3.4 2.3 5.7v12.1h-3.3v-12.1q0.1-1.2-0.5-2.3c-0.8-1.6-2.4-2.6-4.3-2.6h-0.2c-2.1 0-4.3 1.1-5 2.6q-0.6 1.1-0.6 2.3v12.1h-3.2v-12.1c0-2.3 0.8-4.2 2.3-5.7 1.4-1.2 4-2 6.5-2h0.2c2.3 0 4.3 0.7 5.8 2z"/>
				<path id="Layer" class="s0" d="m171.9 14.4c1.5 1.5 2.3 3.4 2.3 5.7v12.1h-3.3v-12.1q0-1.2-0.5-2.3c-0.8-1.6-2.4-2.6-4.3-2.6h-0.2c-2.1 0-4.3 1.1-5 2.6q-0.6 1.1-0.6 2.3v12.1h-3.2v-12.1c0-2.3 0.8-4.2 2.3-5.7 1.4-1.2 4-2 6.5-2h0.2c2.3 0 4.3 0.7 5.8 2z"/>
				<path id="Layer" class="s0" d="m43.7 16.5c-2.3 7.5-11.7 14.5-17.7 20.4l-1-0.9c-4-3.7-8.6-7.7-10.8-10.6-6.9-8.5 1.9-16.7 9.8-12.2 2.4 1.4 4.4 3.4 6.5 5.3q0.5 0.5 1 1-1 1-2.1 2.1c-0.5 0.5-1.4 0.5-1.9 0q-0.4-0.4-0.8-0.7c-1.6-1.4-3.1-2.9-4.9-4-2-1.2-4.1-0.6-5 0.5-1.2 1.3-0.8 3.2 0.8 5.3 1.9 2.3 4.7 5 8.4 8.3 4.8-4.4 12-10.6 13.5-15.7 1.6-5.3-0.8-8.7-3.6-10.1-1.2-0.6-2.6-0.9-4-0.7q0 0 0 0-0.2 0-0.4 0.1c-1.2 0.4-1.8 1.3-1.8 1.3 0 0-3.4-2.8-3.5-2.8q0.6-0.7 1.2-1.2c3-2.4 7.3-2.3 10.5-0.5 4.1 2.1 8.1 7.3 5.8 15.1z"/>
				<path id="Layer" class="s0" d="m22.3 36.9q1 0.8 1.9 1.7-1.1 1-2.2 2c-0.5 0.6-1.4 0.6-2 0.1-0.6-0.7-1.3-1.3-1.9-1.9-3.1-2.9-6.1-5.8-9-8.9-2.6-2.8-5.1-5.6-6.9-8.9-7.4-13 6.5-25.9 18.6-18.8 1.5 0.9 3 2 4.4 3.1 2.8 2.3 5.5 4.7 8.1 7.2 0.8 0.8 2.1 1.5 1.4 2.8-0.6 0.9-1.2 1.8-1.9 2.7-3.2-3.1-6.5-6.2-9.9-9-1.7-1.3-3.5-2.7-5.4-3.7-3.4-1.6-7.9-0.6-10.7 2.3-3 3-3.1 7.6-0.5 11.9 1.5 2.5 3.5 4.7 5.4 6.9 3.4 3.6 7 7.1 10.6 10.5z"/>
				<path id="Layer" class="s0" d="m74.2 21.1h10q0-0.1 0-0.1-0.1-0.6-0.3-1.2c-0.9-2.7-3.2-4.5-5.7-4.5-2.1 0-4.1 1.2-5.2 3.3q-0.3 0.5-0.5 1.1-0.2 0.8-0.3 1.7-0.1 0.6-0.1 1.1c0 0.4 0 0.7 0.1 1.2q0.1 0.8 0.3 1.6 0.2 0.6 0.5 1.2c1.2 2.1 3.2 3.3 5.5 3.3q1.2 0 2.3-0.4c2.2-0.8 3.4-2.6 3.5-2.7l0.6-0.9 2.3 1.5-0.5 0.9c-0.1 0.2-2.8 4.5-8.2 4.5-2.1 0-4.2-0.7-5.9-2-2.3-1.9-3.7-4.9-3.7-8.2 0-3.3 1.4-6.3 3.7-8.2 1.6-1.3 3.6-2 5.6-2 4.1 0 7.6 2.9 8.8 6.8q0.1 0.1 0.1 0.2 0.3 1 0.4 2 0 0.2 0 0.3c0.1 1.3 0 2.4 0 2.4h-0.6-12.7z"/>
				<path id="Layer" class="s0" d="m126 20.1v12.2h-3.2v-1.6c-1.3 1-3.3 2.1-5.7 2.1-4.9 0-8-2.7-8-6.8 0-4.1 3.1-6.7 8-6.7 1.1 0 2.9 0.3 3.9 0.7l-0.7 2.8c-0.8-0.3-2.4-0.6-3.2-0.6-2.9 0-4.7 1.5-4.7 3.8 0 2.4 1.8 3.9 4.7 3.9 2.9 0 5-2.4 5.7-3.2v-6.6c-0.2-3-2.1-4.8-5-4.8-2.9 0-4.6 2.1-4.7 2.2l-0.6 0.8-2.3-1.6 0.7-0.9c0.1-0.1 2.6-3.4 6.9-3.4 2.4 0 4.5 0.8 5.9 2.2 1.4 1.3 2.2 3.2 2.3 5.5z"/>
				<path id="Layer" class="s0" d="m180.3 7.8c0 1.1-1 2.1-2.1 2.1-1.1 0-2-1-2-2.1 0-1.1 0.9-2 2-2 1.1 0 2.1 0.9 2.1 2z"/>
			</g>
			<path id="Layer" class="s0" d="m176.6 12.9h3.2v19.3h-3.2z"/>
			<g id="Layer">
				<path id="Layer" class="s0" d="m194.8 28.3q0.5 1.4 1.5 2.5c-0.9 0.8-2.5 1.9-4.6 1.9-3.8 0-6.6-3-6.6-7.1v-9.8h-3.8v-2.9h3.9l-0.1-5.2h3.2v5.2h5.7v2.9h-5.7v9.8c0 2.4 1.4 4.2 3.4 4.2 1.8 0 3.1-1.4 3.1-1.5z"/>
			</g>
		</g>
	</g>
	<g id="Layer_2">
	</g>
</svg>